PathFileType	4	(X/Y/Z)	C:\Users\WrightLab\Desktop\Jo\P5V11.trc
DataRate	CameraRate	NumFrames	NumMarkers	Units	OrigDataRate	OrigDataStartFrame	OrigNumFrames
100.00	100.00	       18	19	mm	100.00	604	       804
Frame#	Time	Headset_Front			Headset_Back			Headset_Left			Headset_Right			Left_Shoulder			Right_Shoulder			Sternum			C7			Left Elbow			Right Elbow			Left Wrist			Right Wrist			Left ASIS			Right ASIS			S2			Left Knee			Right Knee			Left Ankle			Right Ankle			
		X1	Y1	Z1	X2	Y2	Z2	X3	Y3	Z3	X4	Y4	Z4	X5	Y5	Z5	X6	Y6	Z6	X7	Y7	Z7	X8	Y8	Z8	X9	Y9	Z9	X10	Y10	Z10	X11	Y11	Z11	X12	Y12	Z12	X13	Y13	Z13	X14	Y14	Z14	X15	Y15	Z15	X16	Y16	Z16	X17	Y17	Z17	X18	Y18	Z18	X19	Y19	Z19	

604	6.030																-865.94037	1498.40796	1431.37976							-427.03870	1227.13867	1222.15906	-980.60205	1226.16321	1408.12280	-383.36819	1005.70624	1327.70349	-921.47595	1013.81036	1538.34595	-527.15210	961.31287	1396.36328	-804.51129	999.07562	1513.14539	-758.63208	1006.36194	1181.92871	-540.90863	523.18396	1380.41260	-787.94519	622.34979	1617.24805	-726.68427	117.63087	1292.87036	-896.83105	262.78110	1347.66748	
605	6.040																-862.69238	1498.16296	1439.57349							-427.00916	1228.37891	1226.90320	-978.06006	1226.52686	1417.12183	-381.90869	1008.18097	1334.91272	-918.78473	1013.24817	1546.01990	-524.47736	961.34534	1399.72009	-799.42816	998.75812	1520.20386	-758.80652	1007.80865	1188.22180	-540.23322	522.62439	1384.32056				-727.02405	118.94961	1293.61536	-892.10895	255.32829	1369.18518	
606	6.050																-859.66296	1498.13940	1447.67847							-423.87378	1228.46179	1231.99878	-975.53918	1226.91357	1426.03369	-380.33026	1010.62506	1343.74438	-916.44958	1013.30963	1554.35046	-521.80402	961.52747	1403.15759	-794.70880	998.91010	1527.10779	-759.03510	1009.30029	1194.56824	-538.99176	523.27618	1386.76489				-727.04364	119.58973	1293.70313	-886.45673	247.11751	1393.54980	
607	6.060	-734.87878	1564.20142	1263.51489	-489.44138	1531.44128	1270.78491										-856.51123	1498.27930	1455.75989							-422.03552	1229.29639	1237.64734	-972.94800	1227.02271	1434.89246	-378.10522	1012.05603	1351.54041	-913.70630	1011.37018	1561.32251	-519.97754	961.46204	1405.01147	-790.66461	999.48981	1536.20264	-758.93854	1011.03455	1199.06177	-536.38892	523.89142	1388.95398				-727.00641	120.13433	1294.01208	-879.60596	238.91373	1419.13049	
608	6.070				-487.68814	1532.81970	1277.23694																			-420.13382	1230.28430	1244.10938	-970.78253	1227.76306	1443.63867	-376.59610	1013.62500	1359.42859	-911.21918	1011.75317	1569.22559	-518.19592	961.32727	1407.40942	-785.93176	999.26190	1541.34363	-758.72205	1012.45251	1204.58997	-535.85504	524.33911	1389.30029				-727.24213	121.37257	1294.96814	-871.72900	230.28242	1444.50305	
609	6.080				-486.03354	1533.61255	1283.62927																			-418.14142	1231.45972	1249.99890	-967.88678	1227.59375	1452.33557	-375.29214	1016.13043	1366.00330	-908.32428	1010.96631	1575.63416	-516.16302	961.74969	1410.51978	-782.31244	998.80341	1551.08081	-759.72028	1013.23077	1215.33069	-534.29669	524.84302	1389.76978				-727.53516	122.07340	1294.92078	-862.79187	221.73286	1469.48328	
610	6.090																									-416.29471	1232.12195	1255.42896	-965.28406	1227.97864	1460.92517	-374.15436	1017.13739	1373.12158	-905.30115	1010.82434	1582.94153	-514.56256	961.94061	1412.78918	-776.31091	997.39014	1555.05994	-759.84747	1015.48016	1220.46118	-534.14984	525.35205	1391.09326				-727.92645	123.31102	1296.10913	-852.41235	213.47108	1494.22729	
611	6.100																									-414.25830	1231.85693	1259.05054	-962.43048	1228.21997	1469.48608	-371.98914	1019.63586	1381.65662	-902.46466	1010.46198	1590.90173	-512.54663	961.78546	1415.61755	-772.10815	998.90515	1563.39478	-759.74304	1016.13690	1227.90967	-533.68195	525.04974	1392.33801				-728.14581	123.96890	1296.39075	-840.82886	205.44412	1518.17981	
612	6.110																									-413.65381	1234.57629	1267.56348	-959.21460	1228.10010	1478.02014	-370.01617	1020.65564	1386.90186				-510.55600	962.55103	1418.82825	-768.07404	998.93695	1569.31494	-759.86023	1018.10486	1234.52539	-532.25372	525.75665	1393.20764				-728.40985	125.88976	1297.01001	-828.27417	197.96100	1542.26208	
613	6.120																									-409.92136	1233.50281	1272.96216	-956.29144	1228.61877	1486.45837	-367.99588	1022.46613	1394.23877				-509.20334	962.17889	1421.71143	-762.72211	996.80115	1575.33911	-759.48059	1019.02692	1240.23413	-531.52338	525.79578	1395.48108				-728.27386	126.54797	1296.95776	-814.18054	190.73761	1565.52527	
614	6.130																									-407.44046	1234.40894	1277.87671	-952.85101	1228.43872	1494.84692	-365.69043	1023.63458	1401.82336				-506.93005	962.66327	1424.76855	-757.81873	996.68152	1579.52527	-759.17047	1019.89948	1246.01563	-530.27826	525.92065	1397.21777				-728.18793	127.01698	1297.20142	-799.44635	184.69771	1588.40747	
615	6.140																									-404.95779	1235.14783	1284.46899	-949.73999	1228.68176	1503.16821	-363.07126	1024.29285	1408.03040				-505.43713	962.47400	1426.68408	-753.39392	998.03253	1587.94519	-758.77167	1021.43036	1252.65442	-529.60388	525.46143	1399.47400				-728.20013	127.69868	1297.31104				
616	6.150																									-402.42319	1235.59509	1289.54614	-946.66632	1228.92090	1511.46179	-361.22415	1025.46582	1414.48877				-503.81644	962.51141	1430.03149				-758.22723	1022.61261	1257.68689	-528.48669	525.89233	1402.43994				-728.08313	128.49330	1297.43433				
617	6.160																									-400.52533	1236.74609	1294.45703				-358.41119	1027.07214	1420.41785				-500.63040	963.41138	1434.01550				-757.39746	1022.41571	1265.49219	-528.07855	525.16254	1405.64697				-727.45294	129.89917	1300.36194				
618	6.170																									-397.79514	1237.28442	1300.96375				-356.00790	1027.82153	1427.81787				-499.38528	963.16656	1436.04846				-756.21533	1023.80603	1270.88391	-527.70331	525.20331	1408.20483				-726.97107	130.76419	1300.69739				
619	6.180																									-395.40350	1237.21692	1305.62683				-353.81555	1028.27161	1433.22681				-497.36612	962.52942	1440.18152				-755.01361	1025.18628	1276.26062	-525.81000	525.34052	1411.43005				-726.63623	131.46271	1301.67090				
620	6.190																									-392.88232	1237.62793	1311.34143				-350.10883	1028.08813	1437.12048				-495.12143	963.73657	1442.69983				-754.16772	1024.93420	1284.07959	-524.99725	525.25464	1413.79614				-726.30237	132.91325	1301.57507				
621	6.200																									-389.73895	1237.21729	1316.76086				-347.04224	1029.73132	1444.73718				-491.99872	963.06592	1444.27722				-752.97583	1023.87268	1291.58435	-522.85144	526.07208	1417.07129				-725.76282	133.82498	1302.00293				
